<svg viewBox="0 0 1804.67 444.19" xmlns="http://www.w3.org/2000/svg"><path d="m1760.94 0-298.13 53.88h30.48v38.46l307.72-55.62v-36.72z" fill="#0d4cff"/><g fill="#0d0d0d"><path d="m1451.11 62.34h33.72v31.16h-33.72z"/><path d="m128.83 142.49v-81.84h34.87v205.2h-34.87v-92.51h-93.96v92.51h-34.87v-205.2h34.87v81.84h93.95z"/><path d="m317.65 247.98c-13.83 14.79-31.61 22.19-53.32 22.19s-39.58-7.3-53.03-21.9c-13.83-14.79-20.75-33.62-20.75-56.49s6.92-42.17 20.75-56.78c13.83-14.41 31.7-21.61 53.61-21.61s39.38 7.2 53.03 21.61c13.64 14.61 20.46 33.34 20.46 56.2s-6.92 42.18-20.75 56.78zm-53.32-4.9c12.68 0 22.72-4.71 30.12-14.12 7.39-9.41 11.09-22 11.09-37.75s-3.65-28.14-10.95-37.18c-7.3-9.03-17.39-13.54-30.26-13.54s-22.63 4.61-29.83 13.84c-7.2 9.22-10.81 21.71-10.81 37.47s3.65 28 10.95 37.32 17.19 13.98 29.68 13.98z"/><path d="m444.69 113.39c15.56 0 27.71 4.52 36.46 13.55 8.74 9.03 13.11 21.52 13.11 37.47v101.44h-33.72v-94.24c0-18.83-8.55-28.25-25.65-28.25-10.57 0-19.12 3.6-25.65 10.81-6.53 7.2-9.8 17.44-9.8 30.69v80.98h-33.72v-148.71h32.28l.58 20.75c10.37-16.33 25.74-24.5 46.11-24.5z"/><path d="m629.13 133.56v-72.91h33.72v205.2h-29.68l-.58-21.04c-10.37 16.72-25.56 25.08-45.53 25.08s-34.78-7.4-46.69-22.19-17.87-34-17.87-57.64 5.86-41.59 17.58-55.62c11.91-13.84 26.9-20.75 44.96-20.75 19.21 0 33.91 6.63 44.09 19.89zm-36.31 106.92c11.14 0 20.27-4.61 27.38-13.83 7.11-9.23 10.66-21.33 10.66-36.31s-3.46-27.09-10.38-35.74c-7.3-8.45-16.53-12.68-27.67-12.68s-20.37 4.23-27.09 12.68c-6.73 8.45-10.09 20.27-10.09 35.45s3.36 27.63 10.09 36.75c6.72 9.13 15.75 13.69 27.09 13.69z"/><path d="m826.93 265.84h-34.01c-1.92-7.87-3.17-13.64-3.75-17.29-11.34 14.22-27.57 21.33-48.7 21.33-15.56 0-27.91-3.99-37.04-11.96s-13.69-18.78-13.69-32.42c0-24.98 15.95-40.16 47.84-45.54l46.4-7.78c.77-.19 2.11-.57 4.04-1.15v-12.97c0-13.06-9.8-19.59-29.4-19.59-9.42 0-16.53 1.82-21.33 5.47s-7.69 9.51-8.65 17.58l-31.7-.29c2.88-31.89 23.73-47.84 62.54-47.84 40.92 0 61.39 17.11 61.39 51.3v66.86c0 11.15 2.02 22.58 6.05 34.3zm-78.1-21.33c11.14 0 20.46-3.26 27.96-9.8 7.49-6.53 11.24-14.7 11.24-24.5v-15.56l-41.21 7.2c-15.95 2.88-23.92 10.18-23.92 21.9 0 6.54 2.31 11.62 6.92 15.27s10.95 5.48 19.02 5.48z"/><path d="m960.75 271.32c-26.13 0-46.54-6.05-61.24-18.16-14.7-12.1-22.72-29.59-24.06-52.45h34.01c2.11 28.05 19.31 42.08 51.59 42.08 14.41 0 25.5-2.74 33.29-8.21 7.78-5.48 11.67-13.21 11.67-23.2 0-8.07-2.88-14.51-8.65-19.31-5.76-4.8-15.27-8.65-28.53-11.53l-33.43-7.78c-35.93-8.26-53.89-26.7-53.89-55.33 0-17.48 6.53-32.18 19.6-44.09 12.87-11.53 31.22-17.29 55.04-17.29s42.55 5.76 56.78 17.29c14.22 11.52 22.09 27.37 23.63 47.55h-33.72c-1.35-11.53-6.1-20.46-14.27-26.8s-19.07-9.51-32.71-9.51c-12.49 0-22.29 2.65-29.4 7.93-7.11 5.29-10.66 12.45-10.66 21.47 0 13.64 9.89 22.58 29.68 26.8l38.62 8.93c38.23 8.84 57.35 28.44 57.35 58.79 0 19.22-7.06 34.49-21.18 45.82-14.12 11.34-33.96 17-59.51 17z"/><path d="m1145.48 142.49-30.55-1.15v82.71c0 5.38 1.06 9.13 3.17 11.24 2.11 2.12 5.76 3.17 10.95 3.17h16.43v27.38h-26.8c-13.26 0-22.82-2.93-28.67-8.79-5.87-5.85-8.79-15.42-8.79-28.67v-86.75l-21.33.86v-25.36l21.33.86v-46.69h33.72v46.69l30.55-.86v25.36z"/><path d="m1293.61 247.98c-13.83 14.79-31.61 22.19-53.32 22.19s-39.58-7.3-53.03-21.9c-13.83-14.79-20.75-33.62-20.75-56.49s6.92-42.17 20.75-56.78c13.83-14.41 31.7-21.61 53.61-21.61s39.38 7.2 53.03 21.61c13.64 14.61 20.46 33.34 20.46 56.2s-6.92 42.18-20.75 56.78zm-53.32-4.9c12.68 0 22.72-4.71 30.12-14.12 7.39-9.41 11.09-22 11.09-37.75s-3.65-28.14-10.95-37.18c-7.3-9.03-17.39-13.54-30.26-13.54s-22.63 4.61-29.83 13.84c-7.2 9.22-10.81 21.71-10.81 37.47s3.65 28 10.95 37.32 17.19 13.98 29.68 13.98z"/><path d="m1414.8 112.52c3.26 0 6.44.29 9.51.86v31.99c-5.76-.38-8.74-.57-8.93-.57-11.92 0-21.47 3.89-28.68 11.67-7.2 7.78-10.91 18.69-11.09 32.71v76.66h-33.72v-148.71h32.28l-.58 27.09c7.87-21.14 21.61-31.7 41.21-31.7z"/><path d="m1484.83 265.84h-33.72v-148.71h33.72z"/><path d="m1656.25 192.35v8.36h-109.8c.77 13.64 4.66 24.16 11.67 31.56s16.47 11.09 28.39 11.09c17.1 0 28.63-8.07 34.58-24.2l32.28 2.88c-4.61 15.56-12.73 27.47-24.35 35.73-11.63 8.26-25.79 12.39-42.51 12.39-23.06 0-41.21-7.4-54.47-22.19-13.26-14.6-19.89-33.62-19.89-57.07s6.44-41.3 19.31-55.91c13.06-14.41 30.55-21.61 52.45-21.61s39.19 7.02 52.45 21.04c13.26 14.22 19.88 33.53 19.88 57.93zm-45.53-43.23c-6.53-6.53-15.18-9.8-25.94-9.8s-19.7 3.27-26.22 9.8c-6.92 6.73-10.86 16.14-11.82 28.25h75.8c-1.54-12.49-5.48-21.91-11.82-28.25z"/><path d="m1740.69 270.45c-19.6 0-34.87-4.28-45.82-12.82-10.95-8.55-17.29-20.99-19.02-37.33l31.41-.86c2.31 17.48 13.83 26.22 34.58 26.22 9.8 0 17.44-1.73 22.91-5.19s8.21-8.35 8.21-14.7c0-9.22-7.11-15.27-21.33-18.15l-29.69-6.06c-28.24-5.95-42.36-19.98-42.36-42.08 0-14.02 5.19-25.22 15.56-33.58 10.38-8.35 24.5-12.54 42.37-12.54s32.28 4.14 43.23 12.39c10.95 8.26 17.39 19.89 19.31 34.87l-31.41.87c-2.5-15.56-13.07-23.35-31.7-23.35-8.26 0-14.7 1.54-19.31 4.62-4.61 3.07-6.92 7.49-6.92 13.26 0 8.65 6.63 14.41 19.88 17.29l30.55 6.34c14.99 3.27 25.98 8.36 33 15.28 7.01 6.92 10.52 15.95 10.52 27.09 0 15.18-5.72 27.04-17.15 35.59-11.43 8.54-27.04 12.82-46.83 12.82z"/><path d="m263.34 421.82v-74.05h17.55c9.74 16.91 28.89 49.22 32.53 57.25h.11c-.75-8.35-.75-20.76-.75-32.85v-24.4h12.73v74.05h-16.48c-8.67-14.98-29.32-51.26-33.39-59.71h-.11c.54 7.17.64 21.4.64 34.78v24.93h-12.84z"/><path d="m384.05 408.34c0 5.14.43 12.09.75 13.48h-12.73c-.43-1.18-.75-3.96-.86-5.99-1.93 3.32-5.89 7.28-15.94 7.28-13.16 0-18.73-8.67-18.73-17.12 0-12.41 9.95-18.19 26.11-18.19h8.35v-3.75c0-4.28-1.39-8.77-9.63-8.77-7.28 0-8.77 3.32-9.52 7.38h-12.73c.75-8.99 6.42-17.23 22.79-17.12 14.34.11 22.15 5.78 22.15 18.62v24.18zm-12.95-12.2h-7.17c-9.74 0-14.02 2.89-14.02 9.1 0 4.49 3 8.13 8.88 8.13 10.92 0 12.31-7.49 12.31-15.62v-1.6z"/><path d="m405.35 366.82c5.99 19.9 10.7 36.38 11.99 43.12h.11c1.5-8.13 6.96-24.61 12.95-43.12h13.27l-19.69 55h-14.12l-18.83-55h14.34z"/><path d="m451.9 356.55v-12.95h13.27v12.95zm0 10.27h13.27v55h-13.27z"/><path d="m528.2 415.72c0 17.66-6.85 28.46-26.65 28.46s-23.33-10.59-23.97-17.23h13.48c1.28 4.49 4.82 7.28 11.02 7.28 10.81 0 13.06-6.63 13.06-18.08v-3.21c-2.89 5.24-7.6 8.35-16.05 8.35-14.13 0-22.79-11.56-22.79-26.86 0-17.44 10.38-28.89 23.97-28.89 9.84 0 13.91 4.6 14.87 7.49.11-1.82.43-5.24.54-6.21h12.63c-.11 4.28-.11 10.49-.11 15.84v33.07zm-25.47-5.24c10.06 0 12.84-6.96 12.84-17.12s-2.14-17.01-12.52-17.01c-7.81 0-13.06 6.21-13.06 17.55 0 10.17 5.24 16.59 12.73 16.59z"/><path d="m585.67 408.34c0 5.14.43 12.09.75 13.48h-12.73c-.43-1.18-.75-3.96-.86-5.99-1.93 3.32-5.89 7.28-15.94 7.28-13.16 0-18.73-8.67-18.73-17.12 0-12.41 9.95-18.19 26.11-18.19h8.35v-3.75c0-4.28-1.39-8.77-9.63-8.77-7.28 0-8.77 3.32-9.52 7.38h-12.73c.75-8.99 6.42-17.23 22.79-17.12 14.34.11 22.15 5.78 22.15 18.62v24.18zm-12.95-12.2h-7.17c-9.74 0-14.02 2.89-14.02 9.1 0 4.49 3 8.13 8.88 8.13 10.92 0 12.31-7.49 12.31-15.62v-1.6z"/><path d="m593.49 366.82h8.77v-15.3h13.27v15.3h11.24v10.17h-11.24v28.89c0 4.6 1.28 6.53 5.99 6.53 1.07 0 2.68 0 3.96-.21v9.31c-2.78.96-6.63 1.07-9.63 1.07-9.95 0-13.59-5.35-13.59-14.77v-30.82h-8.77z"/><path d="m635.86 356.55v-12.95h13.27v12.95zm0 10.27h13.27v55h-13.27z"/><path d="m663.8 380.63c0-4.71 0-9.63-.11-13.8h12.84c.32 1.5.54 5.99.54 7.7 1.93-3.85 6.42-8.99 16.37-8.99 10.81 0 18.3 7.06 18.3 21.19v35.1h-13.27v-33.6c0-6.85-2.46-11.77-9.74-11.77-7.81 0-11.66 5.03-11.66 15.2v30.18h-13.27v-41.2z"/><path d="m774.66 415.72c0 17.66-6.85 28.46-26.65 28.46s-23.33-10.59-23.97-17.23h13.48c1.28 4.49 4.82 7.28 11.02 7.28 10.81 0 13.06-6.63 13.06-18.08v-3.21c-2.89 5.24-7.6 8.35-16.05 8.35-14.13 0-22.79-11.56-22.79-26.86 0-17.44 10.38-28.89 23.97-28.89 9.84 0 13.91 4.6 14.87 7.49.11-1.82.43-5.24.54-6.21h12.63c-.11 4.28-.11 10.49-.11 15.84v33.07zm-25.47-5.24c10.06 0 12.84-6.96 12.84-17.12s-2.14-17.01-12.52-17.01c-7.81 0-13.06 6.21-13.06 17.55 0 10.17 5.24 16.59 12.73 16.59z"/><path d="m817.15 347.77h13.91v29.64h32.85v-29.64h13.8v74.05h-13.8v-32.96h-32.85v32.96h-13.91z"/><path d="m943.11 394.22c0 16.37-9.63 28.89-26.86 28.89s-26.43-12.2-26.43-28.68 9.95-28.89 27.07-28.89c15.94 0 26.22 11.45 26.22 28.68zm-39.81.11c0 11.13 5.03 18.19 13.27 18.19s12.95-6.96 12.95-18.08c0-11.88-4.6-18.3-13.16-18.3s-13.06 6.21-13.06 18.19z"/><path d="m954.34 380.63c0-4.71 0-9.63-.11-13.8h12.84c.32 1.5.54 5.99.54 7.7 1.93-3.85 6.42-8.99 16.37-8.99 10.81 0 18.3 7.06 18.3 21.19v35.1h-13.27v-33.6c0-6.85-2.46-11.77-9.74-11.77-7.81 0-11.66 5.03-11.66 15.2v30.18h-13.27v-41.2z"/><path d="m1065.64 343.6v62.92c0 5.14 0 10.17.11 15.3h-12.84c-.21-1.6-.53-4.92-.53-6.42-2.68 4.82-7.71 7.7-16.27 7.7-13.91 0-22.79-11.24-22.79-28.25s9.42-29.32 24.93-29.32c8.45 0 12.73 3.21 14.13 5.89v-27.82h13.27zm-25.79 68.7c11.24 0 12.95-8.99 12.95-18.3 0-10.38-1.71-17.66-12.52-17.66-8.56 0-13.27 6.74-13.27 18.08s4.92 17.87 12.84 17.87z"/><path d="m1123.54 408.34c0 5.14.43 12.09.75 13.48h-12.73c-.43-1.18-.75-3.96-.86-5.99-1.93 3.32-5.89 7.28-15.94 7.28-13.16 0-18.73-8.67-18.73-17.12 0-12.41 9.95-18.19 26.11-18.19h8.35v-3.75c0-4.28-1.39-8.77-9.63-8.77-7.28 0-8.77 3.32-9.52 7.38h-12.73c.75-8.99 6.42-17.23 22.79-17.12 14.34.11 22.15 5.78 22.15 18.62v24.18zm-12.95-12.2h-7.17c-9.74 0-14.02 2.89-14.02 9.1 0 4.49 3 8.13 8.88 8.13 10.92 0 12.31-7.49 12.31-15.62v-1.6z"/><path d="m1133.17 374.1c3-9.95 4.82-22.47 5.03-30.5h13.91c-.75 9.74-4.07 22.47-8.13 30.5z"/><path d="m1168.27 405.56c1.28 4.92 5.14 7.7 11.45 7.7s8.88-2.46 8.88-6.31c0-4.17-2.46-5.89-11.13-8.03-17.23-4.17-20.22-9.52-20.22-17.12 0-8.03 5.67-16.27 21.4-16.27s21.62 8.77 22.15 16.37h-12.73c-.54-2.57-2.35-6.85-9.95-6.85-5.99 0-7.81 2.78-7.81 5.67 0 3.1 1.93 4.71 11.24 6.96 17.76 4.07 20.65 10.17 20.65 18.3 0 9.2-7.17 17.12-22.9 17.12s-22.79-7.81-24.08-17.55h13.06z"/><path d="m1241.04 347.77h50.29v11.56h-36.7v20.12h34.35v11.56h-34.35v30.82h-13.59v-74.05z"/><path d="m1346.77 405.77c0 5.35 0 11.66.11 16.05h-12.95c-.21-1.5-.32-4.6-.43-6.96-3.1 5.67-8.13 8.24-15.62 8.24-10.59 0-18.3-6.1-18.3-20.33v-35.96h13.27v33.28c0 6.42 1.93 11.99 9.42 11.99 8.03 0 11.24-4.39 11.24-16.16v-29.11h13.27v38.95z"/><path d="m1356.41 366.82h8.77v-15.3h13.27v15.3h11.24v10.17h-11.24v28.89c0 4.6 1.28 6.53 5.99 6.53 1.07 0 2.68 0 3.96-.21v9.31c-2.78.96-6.63 1.07-9.63 1.07-9.95 0-13.59-5.35-13.59-14.77v-30.82h-8.77z"/><path d="m1445.23 405.77c0 5.35 0 11.66.11 16.05h-12.95c-.21-1.5-.32-4.6-.43-6.96-3.1 5.67-8.13 8.24-15.62 8.24-10.59 0-18.3-6.1-18.3-20.33v-35.96h13.27v33.28c0 6.42 1.93 11.99 9.42 11.99 8.03 0 11.24-4.39 11.24-16.16v-29.11h13.27v38.95z"/><path d="m1459.78 381.7c0-6.21 0-10.81-.11-14.87h13.06c.21 1.28.32 6.42.32 10.17 2.57-6.63 8.67-11.34 17.98-11.45v12.84c-11.13-.11-17.98 3.85-17.98 18.51v24.93h-13.27z"/><path d="m1509.44 397.1c0 8.24 4.17 15.41 12.41 15.41 7.06 0 9.31-3.21 10.81-6.74h13.38c-2.03 6.85-8.03 17.34-24.61 17.34-17.76 0-25.36-13.7-25.36-28.04 0-17.01 8.67-29.53 26-29.53 18.51 0 24.72 13.8 24.72 26.86 0 1.82 0 3.1-.21 4.71h-37.13zm23.97-8.45c-.11-7.38-3.32-13.38-11.45-13.38s-11.45 5.56-12.2 13.38z"/></g></svg>